<?xml version="1.0" encoding="utf-8"?>
<svg version="1.1" xmlns:xlink="http://www.w3.org/1999/xlink" width="22px" height="22px" xmlns="http://www.w3.org/2000/svg">
  <g transform="matrix(1 0 0 1 -2170 -408 )">
    <path d="M 20.9564732142857 17.1138392857143  C 21.2838541666667 17.2284226190476  21.6316964285714 17.2857142857143  22 17.2857142857143  L 22 22  L 0 22  L 0 17.2857142857143  C 0.368303571428572 17.2857142857143  0.716145833333333 17.2284226190476  1.04352678571429 17.1138392857143  C 1.37090773809524 16.999255952381  1.61235119047619 16.88671875  1.76785714285714 16.7762276785714  C 1.9233630952381 16.6657366071429  2.11569940476191 16.5122767857143  2.34486607142857 16.3158482142857  C 2.59040178571429 16.0948660714286  2.80115327380952 15.9393601190476  2.97712053571429 15.8493303571429  C 3.15308779761905 15.7593005952381  3.3843005952381 15.7142857142857  3.67075892857143 15.7142857142857  C 3.8671875 15.7142857142857  4.04724702380952 15.742931547619  4.2109375 15.8002232142857  C 4.37462797619048 15.8575148809524  4.5014880952381 15.9188988095238  4.59151785714286 15.984375  C 4.68154761904762 16.0498511904762  4.81659226190476 16.1603422619048  4.99665178571429 16.3158482142857  C 5.23400297619048 16.5204613095238  5.42633928571429 16.6759672619048  5.57366071428571 16.7823660714286  C 5.72098214285714 16.8887648809524  5.95833333333333 16.999255952381  6.28571428571429 17.1138392857143  C 6.61309523809524 17.2284226190476  6.96502976190476 17.2857142857143  7.34151785714286 17.2857142857143  C 7.70982142857143 17.2857142857143  8.05766369047619 17.2263764880952  8.38504464285714 17.1077008928571  C 8.7124255952381 16.989025297619  8.94977678571428 16.8785342261905  9.09709821428572 16.7762276785714  C 9.24441964285714 16.6739211309524  9.44084821428572 16.5204613095238  9.68638392857143 16.3158482142857  C 9.85825892857143 16.1603422619048  9.99125744047619 16.0498511904762  10.0853794642857 15.984375  C 10.1795014880952 15.9188988095238  10.3063616071429 15.8575148809524  10.4659598214286 15.8002232142857  C 10.6255580357143 15.742931547619  10.8035714285714 15.7142857142857  11 15.7142857142857  C 11.2864583333333 15.7142857142857  11.5176711309524 15.7593005952381  11.6936383928571 15.8493303571429  C 11.8696056547619 15.9393601190476  12.0803571428571 16.0948660714286  12.3258928571429 16.3158482142857  C 12.5550595238095 16.5122767857143  12.7473958333333 16.6657366071429  12.9029017857143 16.7762276785714  C 13.0584077380952 16.88671875  13.2998511904762 16.999255952381  13.6272321428571 17.1138392857143  C 13.9546130952381 17.2284226190476  14.3024553571429 17.2857142857143  14.6707589285714 17.2857142857143  C 15.0390625 17.2857142857143  15.3869047619048 17.2284226190476  15.7142857142857 17.1138392857143  C 16.0416666666667 16.999255952381  16.2831101190476 16.88671875  16.4386160714286 16.7762276785714  C 16.5941220238095 16.6657366071429  16.7864583333333 16.5122767857143  17.015625 16.3158482142857  C 17.2611607142857 16.0948660714286  17.471912202381 15.9393601190476  17.6478794642857 15.8493303571429  C 17.8238467261905 15.7593005952381  18.0550595238095 15.7142857142857  18.3415178571429 15.7142857142857  C 18.6197916666667 15.7142857142857  18.846912202381 15.7593005952381  19.0228794642857 15.8493303571429  C 19.1988467261905 15.9393601190476  19.4095982142857 16.0948660714286  19.6551339285714 16.3158482142857  C 19.8843005952381 16.5122767857143  20.0766369047619 16.6657366071429  20.2321428571429 16.7762276785714  C 20.3876488095238 16.88671875  20.6290922619048 16.999255952381  20.9564732142857 17.1138392857143  Z M 21.3125 11.6875  C 21.7708333333333 12.1458333333333  22 12.702380952381  22 13.3571428571429  L 22 15.7142857142857  C 21.8035714285714 15.7142857142857  21.6235119047619 15.6856398809524  21.4598214285714 15.6283482142857  C 21.296130952381 15.571056547619  21.1692708333333 15.5096726190476  21.0792410714286 15.4441964285714  C 20.9892113095238 15.3787202380952  20.8541666666667 15.2682291666667  20.6741071428571 15.1127232142857  C 20.436755952381 14.9081101190476  20.2444196428571 14.7526041666667  20.0970982142857 14.6462053571429  C 19.9497767857143 14.539806547619  19.7124255952381 14.4293154761905  19.3850446428571 14.3147321428571  C 19.0576636904762 14.2001488095238  18.7098214285714 14.1428571428571  18.3415178571429 14.1428571428571  C 17.9650297619048 14.1428571428571  17.6130952380952 14.2001488095238  17.2857142857143 14.3147321428571  C 16.9583333333333 14.4293154761905  16.7209821428571 14.539806547619  16.5736607142857 14.6462053571429  C 16.4263392857143 14.7526041666667  16.2340029761905 14.9081101190476  15.9966517857143 15.1127232142857  C 15.8165922619048 15.2682291666667  15.6815476190476 15.3787202380952  15.5915178571429 15.4441964285714  C 15.5014880952381 15.5096726190476  15.3746279761905 15.571056547619  15.2109375 15.6283482142857  C 15.0472470238095 15.6856398809524  14.8671875 15.7142857142857  14.6707589285714 15.7142857142857  C 14.3843005952381 15.7142857142857  14.153087797619 15.6692708333333  13.9771205357143 15.5792410714286  C 13.8011532738095 15.4892113095238  13.5904017857143 15.3337053571429  13.3448660714286 15.1127232142857  C 13.1075148809524 14.9081101190476  12.9151785714286 14.7526041666667  12.7678571428571 14.6462053571429  C 12.6205357142857 14.539806547619  12.3831845238095 14.4293154761905  12.0558035714286 14.3147321428571  C 11.7284226190476 14.2001488095238  11.3764880952381 14.1428571428571  11 14.1428571428571  C 10.6316964285714 14.1428571428571  10.2838541666667 14.2021949404762  9.95647321428572 14.3208705357143  C 9.62909226190476 14.4395461309524  9.39174107142857 14.550037202381  9.24441964285714 14.65234375  C 9.09709821428572 14.754650297619  8.90066964285714 14.9081101190476  8.65513392857143 15.1127232142857  C 8.48325892857143 15.2682291666667  8.35026041666667 15.3787202380952  8.25613839285714 15.4441964285714  C 8.16201636904762 15.5096726190476  8.03515625 15.571056547619  7.87555803571429 15.6283482142857  C 7.71595982142857 15.6856398809524  7.53794642857143 15.7142857142857  7.34151785714286 15.7142857142857  C 7.05505952380952 15.7142857142857  6.82384672619048 15.6692708333333  6.64787946428571 15.5792410714286  C 6.47191220238095 15.4892113095238  6.26116071428571 15.3337053571429  6.015625 15.1127232142857  C 5.78645833333333 14.9162946428571  5.59412202380952 14.7628348214286  5.43861607142857 14.65234375  C 5.28311011904762 14.5418526785714  5.04166666666667 14.4293154761905  4.71428571428571 14.3147321428571  C 4.38690476190476 14.2001488095238  4.0390625 14.1428571428571  3.67075892857143 14.1428571428571  C 3.29427083333333 14.1428571428571  2.94233630952381 14.2001488095238  2.61495535714286 14.3147321428571  C 2.28757440476191 14.4293154761905  2.05022321428571 14.539806547619  1.90290178571429 14.6462053571429  C 1.75558035714286 14.7526041666667  1.56324404761905 14.9081101190476  1.32589285714286 15.1127232142857  C 1.08035714285714 15.3337053571429  0.869605654761905 15.4892113095238  0.693638392857143 15.5792410714286  C 0.517671130952381 15.6692708333333  0.286458333333333 15.7142857142857  0 15.7142857142857  L 0 13.3571428571429  C 0 12.702380952381  0.229166666666667 12.1458333333333  0.6875 11.6875  C 1.14583333333333 11.2291666666667  1.70238095238095 11  2.35714285714286 11  L 3.14285714285714 11  L 3.14285714285714 5.5  L 6.28571428571429 5.5  L 6.28571428571429 11  L 9.42857142857143 11  L 9.42857142857143 5.5  L 12.5714285714286 5.5  L 12.5714285714286 11  L 15.7142857142857 11  L 15.7142857142857 5.5  L 18.8571428571429 5.5  L 18.8571428571429 11  L 19.6428571428571 11  C 20.297619047619 11  20.8541666666667 11.2291666666667  21.3125 11.6875  Z M 5.73325892857143 0.908482142857144  C 6.1015625 1.5141369047619  6.28571428571429 2.12797619047619  6.28571428571429 2.75  C 6.28571428571429 3.38020833333333  6.13839285714286 3.86514136904762  5.84375 4.20479910714286  C 5.54910714285714 4.54445684523809  5.17261904761905 4.71428571428571  4.71428571428571 4.71428571428571  C 4.28050595238095 4.71428571428571  3.91015625 4.56082589285714  3.60323660714286 4.25390625  C 3.29631696428571 3.94698660714286  3.14285714285714 3.57663690476191  3.14285714285714 3.14285714285714  C 3.14285714285714 2.90550595238095  3.18173363095238 2.69680059523809  3.25948660714286 2.51674107142857  C 3.33723958333333 2.33668154761905  3.43340773809524 2.19754464285714  3.54799107142857 2.09933035714286  C 3.66257440476191 2.00111607142857  3.78943452380952 1.88653273809524  3.92857142857143 1.75558035714286  C 4.06770833333333 1.62462797619048  4.19456845238095 1.49572172619048  4.30915178571429 1.36886160714286  C 4.42373511904762 1.24200148809524  4.51990327380952 1.05989583333333  4.59765625 0.822544642857144  C 4.67540922619048 0.585193452380951  4.71428571428571 0.311011904761905  4.71428571428571 0  C 5.02529761904762 0  5.36495535714286 0.302827380952383  5.73325892857143 0.908482142857144  Z M 12.0189732142857 0.908482142857144  C 12.3872767857143 1.5141369047619  12.5714285714286 2.12797619047619  12.5714285714286 2.75  C 12.5714285714286 3.38020833333333  12.4241071428571 3.86514136904762  12.1294642857143 4.20479910714286  C 11.8348214285714 4.54445684523809  11.4583333333333 4.71428571428571  11 4.71428571428571  C 10.5662202380952 4.71428571428571  10.1958705357143 4.56082589285714  9.88895089285714 4.25390625  C 9.58203125 3.94698660714286  9.42857142857143 3.57663690476191  9.42857142857143 3.14285714285714  C 9.42857142857143 2.90550595238095  9.46744791666667 2.69680059523809  9.54520089285714 2.51674107142857  C 9.62295386904762 2.33668154761905  9.71912202380952 2.19754464285714  9.83370535714286 2.09933035714286  C 9.94828869047619 2.00111607142857  10.0751488095238 1.88653273809524  10.2142857142857 1.75558035714286  C 10.3534226190476 1.62462797619048  10.4802827380952 1.49572172619048  10.5948660714286 1.36886160714286  C 10.7094494047619 1.24200148809524  10.8056175595238 1.05989583333333  10.8833705357143 0.822544642857144  C 10.9611235119048 0.585193452380951  11 0.311011904761905  11 0  C 11.3110119047619 0  11.6506696428571 0.302827380952383  12.0189732142857 0.908482142857144  Z M 18.3046875 0.908482142857144  C 18.6729910714286 1.5141369047619  18.8571428571429 2.12797619047619  18.8571428571429 2.75  C 18.8571428571429 3.38020833333333  18.7098214285714 3.86514136904762  18.4151785714286 4.20479910714286  C 18.1205357142857 4.54445684523809  17.7440476190476 4.71428571428571  17.2857142857143 4.71428571428571  C 16.8519345238095 4.71428571428571  16.4815848214286 4.56082589285714  16.1746651785714 4.25390625  C 15.8677455357143 3.94698660714286  15.7142857142857 3.57663690476191  15.7142857142857 3.14285714285714  C 15.7142857142857 2.90550595238095  15.753162202381 2.69680059523809  15.8309151785714 2.51674107142857  C 15.9086681547619 2.33668154761905  16.0048363095238 2.19754464285714  16.1194196428571 2.09933035714286  C 16.2340029761905 2.00111607142857  16.3608630952381 1.88653273809524  16.5 1.75558035714286  C 16.6391369047619 1.62462797619048  16.7659970238095 1.49572172619048  16.8805803571429 1.36886160714286  C 16.9951636904762 1.24200148809524  17.0913318452381 1.05989583333333  17.1690848214286 0.822544642857144  C 17.246837797619 0.585193452380951  17.2857142857143 0.311011904761905  17.2857142857143 0  C 17.5967261904762 0  17.9363839285714 0.302827380952383  18.3046875 0.908482142857144  Z " fill-rule="nonzero" fill="#000000" stroke="none" transform="matrix(1 0 0 1 2170 408 )" />
  </g>
</svg>